<svg version="1.1" id="Layer_1" xmlns="http://www.w3.org/2000/svg" xmlns:xlink="http://www.w3.org/1999/xlink" x="0px" y="0px"
	 width="100%" viewBox="0 0 464 416" enable-background="new 0 0 464 416" xml:space="preserve">
<path fill="#000000" opacity="1.000000" stroke="none" 
	d="
M420.661682,196.617889 
	C421.413391,198.912598 421.083618,200.899475 419.557343,202.017853 
	C413.144684,206.716629 415.249176,214.134354 413.493713,220.298477 
	C412.987091,222.077393 414.706299,222.802826 415.793854,223.804214 
	C418.592133,226.380905 419.078339,229.545471 417.548645,232.907394 
	C416.057587,236.184296 413.150299,237.696762 409.772644,237.019760 
	C406.776947,236.419327 405.124634,237.526718 403.437500,239.648422 
	C401.055725,242.643585 398.481079,245.487244 395.947296,248.358963 
	C394.172821,250.370087 392.323761,252.267365 393.270966,255.371750 
	C393.478149,256.050812 393.219025,257.258545 392.715240,257.709015 
	C387.147980,262.687012 390.010620,269.236633 389.346710,275.116699 
	C389.112549,277.190857 390.516724,278.438843 391.618500,279.905243 
	C393.718384,282.700043 393.995117,285.718964 392.121674,288.765198 
	C390.214478,291.866364 387.276245,292.622253 383.890808,292.147461 
	C378.519165,291.394165 369.665436,296.890350 368.165314,302.060486 
	C367.246094,305.228607 365.357025,306.955505 361.997925,306.585449 
	C355.159698,305.832062 351.999207,311.700043 347.300415,314.750732 
	C346.132996,315.508698 347.047363,317.268341 347.175995,318.561829 
	C347.613586,322.961914 346.045532,326.413025 342.281769,328.753479 
	C337.932281,331.458221 336.517365,338.440979 339.993713,342.118500 
	C343.043823,345.345093 343.760651,348.271393 340.488007,351.619812 
	C339.260345,352.875916 339.601501,354.307220 339.833771,355.831604 
	C340.433746,359.769806 340.922394,363.726593 341.373779,367.685242 
	C341.706970,370.607513 342.364410,373.031982 345.565491,374.373169 
	C348.849640,375.749176 350.018829,378.808472 349.528961,382.249115 
	C349.059601,385.545746 346.986786,387.631897 343.713135,388.316071 
	C340.276550,389.034332 337.569855,387.989410 335.552124,384.945404 
	C332.529907,380.386047 328.729584,379.834320 324.220276,383.135925 
	C322.113617,384.678406 319.877533,384.857727 317.677368,383.603485 
	C315.541290,382.385773 314.594910,380.152985 315.544495,378.030426 
	C317.171814,374.392822 315.527374,371.618225 314.015076,368.648132 
	C312.277191,365.234955 310.609741,361.785767 308.929169,358.343658 
	C307.749908,355.928375 306.683228,353.503571 303.457977,353.113708 
	C302.599426,353.009918 301.535034,352.208740 301.092529,351.428589 
	C295.596191,341.738892 284.357178,342.379669 276.170319,337.553314 
	C274.541382,336.593079 273.139709,338.486176 271.694916,339.206818 
	C268.530304,340.785278 265.577118,340.507782 262.840759,338.261810 
	C259.979675,335.913483 259.240173,332.523987 260.908173,329.710236 
	C263.080139,326.046265 261.592468,323.525330 259.954987,320.564697 
	C257.564484,316.242615 255.829224,311.560913 249.274475,312.212463 
	C246.592331,312.479126 244.242386,310.300598 243.165771,307.689423 
	C241.987350,304.831360 240.058899,304.119781 237.234634,304.525513 
	C230.447891,305.500519 223.603104,305.365662 216.774582,305.331635 
	C214.061142,305.318115 212.311020,306.005005 210.733780,308.588593 
	C207.359177,314.116425 200.646194,313.910187 197.406067,308.236420 
	C196.152969,306.042145 194.752869,305.119110 192.435471,304.869537 
	C188.800354,304.478058 185.186890,303.889465 181.555374,303.459290 
	C179.349609,303.198029 177.421249,303.596252 175.554520,305.158478 
	C172.700211,307.547150 169.856522,307.244598 167.245255,304.332916 
	C163.200394,299.822754 155.513382,299.393585 151.093750,303.270538 
	C147.234863,306.655579 141.673843,306.204224 139.046280,301.663696 
	C137.377396,298.779846 135.358490,298.296722 132.533768,298.298981 
	C129.708878,298.301208 126.840973,298.245667 124.069649,297.766205 
	C120.681595,297.180054 118.150139,297.436646 115.933205,300.690125 
	C113.739029,303.910217 108.482170,304.249451 105.583122,302.080078 
	C102.544571,299.806366 101.779549,295.386902 103.784103,291.686920 
	C105.956673,287.676758 103.860413,280.161407 99.757782,278.195435 
	C97.521744,277.123901 96.034637,275.689301 94.821983,273.547150 
	C92.501450,269.447998 83.739937,267.428650 79.822914,269.865540 
	C76.199577,272.119720 72.057709,271.483521 69.526283,268.283997 
	C66.918213,264.987610 66.953026,260.694489 70.425529,258.064056 
	C73.072716,256.058777 73.220856,254.032944 72.839348,251.210907 
	C72.372566,247.758179 72.356323,244.245392 72.122185,240.760101 
	C71.919693,237.745956 71.600105,234.860336 68.643517,232.954422 
	C67.843979,232.439026 67.270981,230.910080 67.303474,229.868469 
	C67.629326,219.421906 58.289639,214.592163 54.017197,206.837204 
	C53.235737,205.418793 51.617134,206.194183 50.323814,206.170853 
	C45.695889,206.087341 42.391056,203.265991 42.013744,199.164597 
	C41.645691,195.163879 44.570221,191.236572 49.038330,191.008331 
	C52.510094,190.831009 54.004856,189.012115 55.494171,186.488708 
	C57.864357,182.472809 60.341545,178.519241 62.817631,174.566971 
	C64.090591,172.535141 65.121819,170.563110 64.015167,168.041992 
	C63.474808,166.810944 63.477627,165.227371 64.369019,164.195267 
	C69.839424,157.861267 65.617523,150.981384 65.590515,144.352631 
	C65.582832,142.467438 63.812531,142.176758 62.507732,141.500671 
	C57.214733,138.758057 55.184349,134.698654 56.600803,129.762222 
	C58.080296,124.606094 62.099590,122.119247 68.267044,123.092636 
	C70.513733,123.447212 71.633942,122.732010 72.854355,121.146301 
	C77.120636,115.603050 81.441422,110.100441 85.825722,104.650139 
	C87.167725,102.981842 87.593369,101.430824 87.260643,99.189224 
	C86.607239,94.787170 89.965256,91.651451 93.849632,93.208237 
	C96.639198,94.326233 98.592621,93.620071 100.840576,92.457802 
	C104.391777,90.621696 107.977821,88.852997 111.549751,87.057030 
	C111.847443,86.907349 112.305321,86.847618 112.427711,86.611038 
	C116.587158,78.570816 127.154655,77.776115 131.422165,69.775070 
	C132.358231,68.020050 132.725189,66.570892 132.351974,64.634697 
	C131.544067,60.443390 132.733307,56.816135 136.935074,55.232285 
	C140.904160,53.736141 143.927338,55.537701 146.253128,58.992496 
	C148.845139,62.842754 158.976807,63.300434 161.940338,59.860088 
	C165.201797,56.073887 168.610809,55.436745 172.936081,57.920765 
	C174.078278,58.576733 174.988739,59.648853 176.524109,58.947186 
	C181.825333,56.524467 187.141602,54.134659 192.453064,51.734360 
	C194.494003,50.812042 194.553360,49.022484 194.650253,47.118160 
	C194.872314,42.752789 197.288162,39.872379 201.432602,38.917740 
	C205.846436,37.901043 209.953171,38.949768 212.089661,43.304077 
	C213.474060,46.125542 215.093307,46.563408 217.997513,46.142902 
	C226.247437,44.948368 234.645325,46.275604 242.925583,44.922386 
	C245.112656,44.564968 246.986725,44.233921 248.677521,42.503208 
	C251.289307,39.829815 254.182999,39.934120 257.031342,42.546940 
	C260.163605,45.420208 269.868408,45.533878 273.231079,42.875935 
	C278.373962,38.810787 282.401489,40.288746 283.186218,46.696560 
	C283.411652,48.537521 284.142670,49.766018 285.423553,50.926586 
	C289.621094,54.729790 293.812317,58.541592 297.929321,62.431194 
	C299.523315,63.937134 301.068268,64.386887 303.316742,63.878757 
	C308.084991,62.801182 311.601715,64.726868 312.945526,69.484314 
	C313.614838,71.853897 315.056824,72.569893 317.087616,73.136810 
	C323.821777,75.016716 330.564880,76.880371 337.225220,78.999634 
	C339.365753,79.680733 340.542389,79.032745 342.036285,77.666618 
	C346.570251,73.520454 351.003357,73.093422 355.085144,76.130768 
	C358.998077,79.042450 359.959991,83.962067 357.074860,89.093781 
	C355.799866,91.361557 355.954773,93.007706 357.177063,95.038033 
	C358.894379,97.890572 360.529358,100.802170 362.023285,103.777016 
	C363.513000,106.743431 365.156769,108.637421 369.044434,108.981255 
	C373.428162,109.368965 375.583649,113.096451 374.946869,117.363770 
	C374.531250,120.148720 375.391602,121.700027 377.238953,123.374008 
	C382.300262,127.960289 387.307251,132.609100 392.239777,137.333374 
	C393.842407,138.868347 395.299866,139.443237 397.561890,138.696396 
	C401.369904,137.439163 404.589355,138.729828 406.426605,142.289383 
	C408.349792,146.015411 407.354614,149.402390 404.262482,152.162155 
	C403.522339,152.822784 402.498322,153.225952 401.909454,153.984100 
	C400.181152,156.209213 401.063293,175.013748 402.986023,177.186661 
	C403.998566,178.330963 405.025635,179.427887 405.166046,181.008026 
	C405.801025,188.152969 409.378082,192.433548 416.746307,193.249832 
	C418.496887,193.443756 419.692841,194.704910 420.661682,196.617889 
M275.265015,294.863098 
	C277.918030,290.838287 279.620300,285.753693 285.697021,285.541046 
	C285.972473,285.531464 286.265289,285.215088 286.500854,284.990112 
	C290.018311,281.631042 291.717133,267.014496 288.295197,263.614105 
	C282.929901,258.282562 279.429199,249.250549 269.045685,252.271393 
	C268.900696,252.313583 268.719696,252.231155 268.555359,252.207809 
	C263.152252,251.440704 259.149567,255.719696 260.103882,261.293854 
	C260.748505,265.058929 259.890442,268.078461 256.552612,270.387543 
	C253.582169,272.442413 251.804153,290.151642 254.077377,293.013947 
	C254.178833,293.141693 254.313232,293.252380 254.451797,293.340240 
	C258.704071,296.036133 262.360016,300.634460 268.415863,297.068451 
	C270.215027,296.009003 272.514221,295.798676 275.265015,294.863098 
M232.497681,96.981728 
	C231.778473,95.276146 230.364807,94.585022 228.659988,94.142433 
	C224.636429,93.097855 220.624908,91.998756 216.641266,90.811806 
	C214.530960,90.183037 212.907089,90.327179 211.328033,92.176704 
	C209.671570,94.116898 208.809799,95.853737 209.831833,98.455254 
	C213.177292,106.970924 216.336853,115.559448 219.618256,124.100616 
	C220.139877,125.458366 220.519897,127.343796 222.278244,127.403343 
	C226.241119,127.537552 229.347321,128.953079 231.558655,132.301392 
	C232.054550,133.052246 232.925293,133.148224 233.808090,132.923462 
	C240.733871,131.160034 247.720352,129.601212 254.562805,127.559395 
	C257.654144,126.636932 258.559723,124.133141 256.458008,121.280960 
	C254.385406,118.468262 252.290024,115.655777 249.991791,113.029449 
	C245.663162,108.082909 243.249069,100.955544 235.254547,100.049751 
	C234.370087,99.949532 233.640259,98.484467 232.497681,96.981728 
M143.457260,241.231857 
	C145.470688,245.900604 145.303711,251.877121 151.445129,254.091064 
	C152.241104,254.378021 152.812698,255.983078 153.015259,257.066071 
	C153.365723,258.939606 154.462860,259.964752 156.044006,260.717682 
	C160.603195,262.888733 164.756195,267.366302 170.428711,263.139099 
	C170.875168,262.806396 171.807907,262.785065 172.367249,263.000946 
	C175.776535,264.316772 177.637253,262.292511 179.459122,259.951202 
	C180.888306,258.114532 182.430939,256.365387 183.941696,254.593124 
	C186.694214,251.364120 186.743515,245.727600 183.996201,242.547119 
	C182.256088,240.532623 180.366959,238.639633 178.719315,236.554184 
	C176.229538,233.402863 173.662292,231.080734 169.112259,232.603226 
	C166.845642,233.361679 163.999557,232.610489 162.695801,230.725998 
	C159.287231,225.799194 155.147202,226.961548 150.489288,228.082520 
	C142.035919,230.116882 140.514481,232.437683 143.457260,241.231857 
M205.345413,59.355640 
	C205.306458,63.850121 205.250610,68.344551 205.238098,72.839104 
	C205.233948,74.328552 205.095413,75.979118 206.719803,76.801506 
	C210.539902,78.735527 212.965637,81.586983 213.582947,85.969360 
	C213.820358,87.654640 215.540192,88.115616 216.988022,88.528275 
	C219.387238,89.212097 221.828659,89.750595 224.219269,90.461365 
	C233.520569,93.226791 241.823532,91.396187 249.251511,85.211334 
	C251.038803,83.723160 252.973969,82.413681 254.821960,80.997032 
	C258.726959,78.003456 258.114716,73.801041 253.440338,71.954399 
	C249.571030,70.425804 245.609955,69.128082 241.750992,67.575317 
	C239.417374,66.636307 237.635086,66.681740 235.361862,68.279663 
	C230.567108,71.650063 224.907883,69.384163 223.641663,64.007652 
	C221.488647,54.865654 212.778854,52.249817 205.345413,59.355640 
M162.682129,82.066071 
	C161.888138,84.076424 160.871994,86.030624 160.346634,88.108879 
	C159.267975,92.376015 160.383209,96.553848 163.527328,99.266113 
	C169.056335,104.035713 175.141190,108.167442 181.058029,112.477409 
	C183.032135,113.915390 190.967606,113.032974 191.433792,110.995384 
	C193.018448,104.069206 202.192490,98.419884 195.250610,89.974457 
	C194.955154,89.615013 194.701248,89.002396 194.787277,88.581078 
	C196.195221,81.686172 191.119659,79.413956 186.493668,76.746475 
	C183.757355,75.168625 181.137527,73.389969 178.444687,71.735214 
	C173.420013,68.647560 167.037155,70.783279 164.944382,76.237305 
	C164.289124,77.944969 163.652771,79.659889 162.682129,82.066071 
M192.732178,126.660271 
	C188.501465,128.334854 184.905762,127.741486 182.326019,123.686897 
	C181.547470,122.463257 180.621323,121.844025 179.058380,121.945847 
	C170.439819,122.507294 161.805023,122.847221 153.196991,123.530350 
	C148.953308,123.867134 148.248062,126.044327 151.117508,129.486404 
	C154.418121,133.445679 158.105499,137.097595 161.232132,141.183548 
	C166.837082,148.508255 173.743195,150.443344 182.448090,147.638321 
	C190.509155,145.040771 198.720474,142.911423 206.850784,140.525345 
	C208.600388,140.011871 210.405502,139.491302 211.972794,138.600555 
	C214.136566,137.370804 214.516281,134.768723 212.769714,133.608551 
	C207.397476,130.040009 201.617905,127.085564 195.424179,125.124710 
	C194.899948,124.958748 194.029861,125.885193 192.732178,126.660271 
M268.176178,101.150360 
	C272.423859,101.786674 277.103180,105.134880 280.689819,103.154877 
	C286.335083,100.038406 293.875183,98.446861 295.446716,90.132111 
	C296.046906,86.956627 298.171265,84.085876 299.476166,81.023048 
	C301.463196,76.359116 299.322784,73.108253 294.165833,73.383438 
	C288.360535,73.693237 282.583832,74.508408 276.785431,74.992317 
	C274.250702,75.203857 272.470825,76.109245 271.319031,78.556931 
	C269.866302,81.644135 266.972260,82.903008 263.809906,82.266457 
	C253.326202,80.156212 250.192780,90.037186 243.215210,94.001419 
	C251.228226,97.678848 259.417358,98.886688 268.176178,101.150360 
M116.059738,186.445709 
	C120.246193,189.164642 124.351395,192.021103 128.645493,194.557831 
	C131.925537,196.495499 135.364761,195.024094 135.251862,191.830322 
	C134.999374,184.688080 134.494507,177.554382 134.060471,170.419144 
	C133.944687,168.515793 133.429977,166.935730 131.331940,166.112320 
	C127.578621,164.639221 125.718391,161.540482 125.040703,157.723526 
	C124.677467,155.677612 123.676376,154.588867 121.653816,153.963806 
	C115.777794,152.147873 109.964600,150.128571 104.127327,148.187363 
	C102.545349,147.661255 100.987335,146.971588 99.493156,148.469803 
	C98.133652,149.832977 98.876350,151.244751 99.264442,152.657333 
	C100.056190,155.539124 100.615959,158.517349 101.727364,161.271835 
	C104.106148,167.167374 103.122261,174.829956 110.459480,178.230560 
	C110.995499,178.478973 111.370537,179.702118 111.334145,180.448380 
	C111.184906,183.509201 113.159096,184.883133 116.059738,186.445709 
M359.904816,192.495285 
	C359.326019,192.824646 358.652802,193.054214 358.182983,193.498764 
	C353.316193,198.103210 350.682739,204.345856 347.613342,209.986374 
	C345.449005,213.963623 346.521271,219.751694 346.329376,224.738235 
	C346.152313,229.339920 347.995026,230.525711 352.664886,230.855331 
	C360.820160,231.430984 366.454132,225.999863 372.214874,222.152298 
	C378.810944,217.746811 380.882416,206.693237 378.219513,198.361084 
	C374.851501,187.822876 372.161835,184.273193 359.904816,192.495285 
M354.541901,298.581146 
	C358.508514,299.005707 359.375580,297.261627 357.828949,293.859131 
	C356.317078,290.533081 354.822540,287.198334 353.252869,283.899567 
	C351.050781,279.271698 350.060364,273.543884 343.195587,273.143799 
	C342.256104,273.089050 341.077881,271.971985 340.547424,271.040741 
	C339.057892,268.425751 336.802124,268.153625 334.167114,268.257874 
	C323.877808,268.664795 313.584991,268.981018 303.294067,269.348419 
	C302.327789,269.382904 301.244141,269.297272 300.684143,271.132904 
	C305.387573,276.089081 311.329987,280.022675 316.676178,284.628601 
	C319.075439,286.695587 321.289581,288.840393 324.987274,287.868317 
	C326.654236,287.430084 328.564545,288.436737 329.176331,289.988800 
	C330.608368,293.621643 333.782867,293.838501 336.798584,294.534454 
	C342.452850,295.839233 348.108185,297.139465 354.541901,298.581146 
M167.031433,213.428391 
	C169.639160,212.838013 172.061279,213.441513 174.100525,215.015701 
	C175.889008,216.396347 177.289795,216.073837 179.038986,214.976151 
	C186.077347,210.559326 193.306549,206.435272 200.211807,201.823593 
	C202.769791,200.115234 206.235138,199.280701 208.357941,195.176483 
	C195.107285,195.796310 183.240082,191.558044 170.314972,193.783539 
	C162.478989,195.132782 154.855423,196.568314 147.447556,199.246964 
	C143.633698,200.626038 143.240097,203.964859 146.437988,206.446320 
	C149.059769,208.480728 152.120468,209.980667 154.604431,212.154251 
	C158.293961,215.382751 162.002289,216.234329 167.031433,213.428391 
M98.922096,208.270508 
	C99.549149,210.131256 101.631393,211.954422 100.781723,213.770752 
	C98.221977,219.242615 101.561600,223.337173 103.532494,227.705521 
	C105.922188,233.002075 110.111229,233.485229 113.801384,228.925049 
	C119.021385,222.474380 124.064445,215.880508 129.181656,209.346680 
	C129.897659,208.432465 130.686890,207.555649 130.360382,206.231094 
	C129.120880,201.202759 128.714157,195.896240 122.549828,193.633743 
	C119.359566,192.462814 116.679283,189.923889 113.735207,188.055634 
	C109.395271,185.301559 106.034012,186.311066 104.379501,191.027542 
	C102.457680,196.506058 100.742928,202.057220 98.922096,208.270508 
M322.753143,183.482635 
	C323.455872,180.743408 324.206421,178.015381 324.850983,175.262558 
	C326.051025,170.137482 323.700134,166.243134 318.527893,164.858002 
	C315.799377,164.127304 313.025513,163.565414 310.271118,162.931763 
	C304.566040,161.619263 301.194092,163.816483 299.977264,169.580063 
	C299.186096,173.327240 298.410645,177.081024 297.475891,180.793518 
	C296.758972,183.640930 296.377014,186.096741 299.301697,188.207321 
	C301.090088,189.497910 301.781372,191.955673 301.193054,194.128143 
	C300.291748,197.456528 301.864197,199.441483 304.112366,201.403793 
	C306.243866,203.264313 308.189423,205.335968 310.269684,207.257477 
	C314.067017,210.765060 316.163147,210.180893 317.479645,205.118271 
	C319.278595,198.200500 320.928253,191.243896 322.753143,183.482635 
M198.932465,238.387375 
	C196.928024,241.421890 195.090744,244.233734 196.093048,248.425247 
	C196.839218,251.545563 194.380890,253.632645 191.096497,253.989807 
	C189.651093,254.147003 188.153442,253.632370 186.965729,255.036758 
	C184.499588,257.952759 181.837097,260.706299 179.437286,263.673737 
	C177.239227,266.391724 178.789429,268.933136 180.835724,270.580261 
	C185.253143,274.136078 199.325974,272.547028 202.882843,268.332397 
	C207.811020,262.492859 212.663467,256.589417 217.551437,250.715927 
	C218.847061,249.159073 219.496872,247.547745 219.634689,245.356094 
	C220.121368,237.615829 214.143784,234.077606 209.649445,229.780579 
	C207.848114,228.058334 204.891403,228.755798 203.275620,231.426331 
	C201.985275,233.559006 200.642487,235.659958 198.932465,238.387375 
M291.332825,200.406357 
	C289.026978,199.201950 287.107178,199.718399 284.891693,201.099457 
	C273.932709,207.930786 270.896515,218.142242 272.147675,230.208939 
	C272.516479,233.766190 277.854584,236.597336 280.847900,234.802017 
	C290.112640,229.245300 299.317627,223.584732 308.442230,217.801056 
	C311.386536,215.934769 312.383331,212.530548 309.830750,210.245392 
	C304.753479,205.699966 301.041595,198.067047 291.332825,200.406357 
M377.030701,290.493042 
	C378.262665,289.660034 378.728119,288.564728 378.414276,287.061768 
	C377.353851,281.983490 379.290955,278.647949 384.316162,277.200653 
	C386.288086,276.632782 386.748535,275.201660 386.723297,273.364594 
	C386.679840,270.203613 386.851929,267.034332 386.684418,263.881775 
	C386.471802,259.880219 383.803528,257.782959 379.995911,258.764771 
	C372.435547,260.714172 364.910492,262.809784 357.413971,264.993011 
	C354.555328,265.825592 351.086639,272.906952 352.234070,275.548523 
	C354.884277,281.649811 357.480286,287.797241 360.579926,293.671814 
	C362.296143,296.924438 365.382172,298.142639 368.935120,295.842651 
	C371.448914,294.215332 373.925018,292.529877 377.030701,290.493042 
M98.765892,159.530945 
	C97.666031,156.112076 97.803734,151.932861 94.619667,149.712234 
	C92.601898,148.305008 91.021896,147.027435 90.170280,144.698471 
	C89.568207,143.051941 77.240578,136.611710 75.593338,136.888504 
	C75.136940,136.965195 74.694328,137.273132 74.301003,137.553116 
	C69.892120,140.691452 66.770561,144.369888 68.464890,150.359100 
	C69.002220,152.258453 69.223557,154.291489 69.284950,156.272781 
	C69.456474,161.808136 73.532990,165.699738 77.072678,167.966751 
	C83.409454,172.025146 90.990692,174.187164 98.138992,176.913116 
	C102.050224,178.404617 103.344315,177.106964 102.350212,172.827499 
	C101.372993,168.620789 100.107796,164.480988 98.765892,159.530945 
M206.985550,153.500000 
	C209.165741,150.987213 211.362946,148.488907 213.518265,145.954971 
	C214.460648,144.847046 215.869324,143.746445 214.596512,142.088196 
	C213.583969,140.769073 212.179276,141.338852 210.914352,141.707977 
	C200.223663,144.827682 189.523514,147.916367 178.859390,151.124725 
	C175.525040,152.127884 170.445114,158.596375 170.372650,161.684647 
	C170.224350,168.006088 170.101334,174.329025 170.074860,180.651810 
	C170.067703,182.358475 169.466156,184.414673 171.722839,185.434555 
	C173.726761,185.352112 174.989059,183.866272 176.477142,182.887924 
	C180.468582,180.263748 184.521973,177.987793 184.228790,171.877213 
	C184.071335,168.595261 187.367096,165.484070 190.592514,166.098068 
	C196.101379,167.146729 198.358307,163.832260 201.054550,160.513885 
	C202.836533,158.320724 204.676819,156.174927 206.985550,153.500000 
M350.674957,233.932159 
	C347.351105,236.649277 345.832458,240.058533 346.335144,244.415359 
	C346.772156,248.202728 346.897675,252.025040 347.276001,255.820435 
	C347.640656,259.478790 353.359100,263.552551 356.960480,262.618866 
	C364.503601,260.663269 372.029480,258.632538 379.518250,256.479034 
	C383.347076,255.378006 384.358215,252.642471 382.217743,249.204498 
	C380.202393,245.967545 377.870941,242.928833 375.723114,239.772552 
	C371.481567,233.539520 365.098816,230.901474 357.731445,232.377060 
	C355.616974,232.800583 353.500336,233.213638 350.674957,233.932159 
M365.206451,186.657684 
	C369.709229,183.313858 371.845245,177.827911 367.768463,170.086685 
	C367.324799,169.244247 353.698090,160.869629 352.847504,161.078262 
	C347.698730,162.341080 342.518311,163.498642 337.426636,164.963043 
	C333.473572,166.099976 331.626312,169.400299 333.532349,172.512985 
	C338.070038,179.923340 340.844055,188.534332 347.835907,194.266495 
	C354.278992,193.684921 359.142883,189.704941 365.206451,186.657684 
M298.170074,314.642395 
	C300.052246,313.414185 302.115479,312.823883 304.329956,313.270050 
	C306.200470,313.646881 307.532745,313.052734 308.670105,311.597534 
	C312.046478,307.277802 315.490784,303.011169 318.858612,298.684845 
	C321.103973,295.800446 320.006226,294.383636 316.682098,294.423035 
	C312.365173,294.474152 308.051666,294.769897 303.735107,294.910858 
	C298.432098,295.084076 292.556427,293.477753 289.304657,299.801575 
	C289.057526,300.282104 288.171997,300.696320 287.582275,300.697601 
	C282.463928,300.708557 281.195465,304.617065 279.666901,308.319855 
	C278.399078,311.391022 276.824646,314.358887 275.828217,317.512238 
	C274.832306,320.664001 270.855896,323.848450 273.527863,327.000427 
	C276.564972,330.583221 280.224518,326.610718 283.506439,325.798187 
	C289.606354,324.287994 296.255493,323.132629 298.170074,314.642395 
M103.727127,116.346428 
	C103.728157,115.846970 103.673828,115.340172 103.738846,114.849190 
	C104.340309,110.307251 101.365242,104.948730 96.631798,103.465088 
	C92.514748,102.174637 89.096352,103.560745 86.479439,107.483078 
	C83.160667,112.457375 79.312973,117.087906 75.558708,121.758438 
	C73.854134,123.879013 73.870705,125.621193 74.420914,128.423752 
	C75.518990,134.016861 79.138214,136.091614 83.692276,137.450409 
	C86.575783,138.310760 88.767303,140.634369 92.486908,139.928452 
	C98.173355,138.849258 99.610023,134.160965 102.609428,130.587311 
	C106.311897,126.175980 106.823189,121.928261 103.727127,116.346428 
M268.593750,204.518677 
	C270.058105,202.792725 269.580627,200.699112 269.558746,198.754623 
	C269.451935,189.264450 269.175781,179.776016 269.095764,170.285812 
	C269.050323,164.898544 265.202362,161.430817 259.778778,162.311157 
	C256.174713,162.896164 252.596832,163.654404 249.022003,164.405319 
	C243.103256,165.648590 238.395096,176.780197 243.106415,179.691254 
	C249.559906,183.678772 253.205139,187.746597 252.314636,195.332809 
	C257.476959,198.663773 261.462738,203.917770 268.593750,204.518677 
M359.490906,124.253082 
	C360.445740,122.923920 361.826721,121.681252 360.537140,119.837677 
	C359.447021,118.279205 357.877686,118.802025 356.428131,119.001488 
	C348.210083,120.132309 339.989990,121.251228 331.782623,122.455826 
	C328.339417,122.961182 323.119141,130.958694 323.768524,134.544113 
	C324.979553,141.230316 326.111481,147.932541 327.454559,154.592163 
	C327.856903,156.587067 327.732513,158.936157 329.789154,160.406570 
	C330.304596,160.244553 330.944824,160.246811 331.192139,159.936218 
	C340.506744,148.236862 349.785187,136.508713 359.490906,124.253082 
M336.426453,81.162666 
	C329.718658,79.204117 323.035858,77.153664 316.294647,75.317787 
	C311.412445,73.988190 308.581299,76.901024 309.937134,81.818314 
	C312.676788,91.754440 315.548584,101.654091 318.341553,111.575630 
	C318.851776,113.388184 319.360168,115.094109 321.569427,115.551735 
	C324.011963,116.057701 325.175873,114.539406 326.406464,112.852722 
	C330.823486,106.798622 335.296234,100.784966 339.775574,94.776634 
	C342.595825,90.993752 341.362885,84.502937 336.426453,81.162666 
M122.644608,130.935349 
	C124.888527,135.199356 127.235825,139.413223 129.336807,143.746536 
	C130.556732,146.262695 132.066483,147.520523 135.076599,147.354904 
	C138.626236,147.159592 141.442657,148.911163 143.348663,152.003052 
	C144.117828,153.250778 144.738281,154.692459 146.702927,154.401581 
	C151.462433,153.696945 156.262329,153.227982 160.990952,152.363235 
	C165.062927,151.618591 165.525925,149.899734 162.703644,146.631195 
	C158.142441,141.348816 153.982895,135.571823 148.732208,131.081177 
	C144.798264,127.716660 139.556732,125.964790 135.284363,122.610252 
	C132.667114,120.555260 128.390289,120.517517 124.811653,119.813156 
	C121.822540,119.224838 119.003159,122.429779 119.926628,125.348930 
	C120.471222,127.070412 121.500076,128.638702 122.644608,130.935349 
M116.477165,252.052185 
	C118.684402,255.771561 121.119041,259.376617 123.056923,263.231384 
	C129.272903,275.596069 131.903961,274.050812 139.500778,264.625793 
	C143.399323,259.789062 145.151276,253.782776 143.013718,247.354996 
	C142.069122,244.514420 141.188965,241.650421 140.166138,238.838318 
	C138.397003,233.974304 134.121613,231.989319 129.140228,233.627518 
	C126.612976,234.458618 124.098373,235.330765 121.556267,236.113602 
	C113.164375,238.697830 111.351440,243.751938 116.477165,252.052185 
M118.228233,101.429863 
	C116.953682,104.519905 117.184242,107.165451 120.138275,109.317230 
	C121.007874,109.950653 121.802727,111.158661 121.965889,112.206985 
	C122.619278,116.404930 125.249153,117.915123 129.133667,118.362663 
	C131.253250,118.606880 133.295731,119.475555 135.390121,119.993340 
	C138.714783,120.815285 144.818268,118.102409 146.267349,115.014427 
	C148.029251,111.259865 149.671860,107.444702 151.231903,103.601288 
	C152.969986,99.319206 151.298553,95.686790 146.833054,94.324493 
	C142.712616,93.067459 138.475433,92.198753 134.326797,91.027443 
	C119.722519,86.904121 121.772697,86.874023 118.228233,101.429863 
M102.913971,254.717453 
	C103.213699,252.126450 105.434898,249.242508 103.934006,247.079300 
	C100.440659,242.044449 97.824455,235.687088 90.043564,235.453171 
	C87.615334,235.380173 85.199760,234.340378 82.810043,233.635834 
	C75.958000,231.615646 74.334549,232.771576 74.379478,239.815353 
	C74.391121,241.641052 74.473862,243.475113 74.672180,245.289139 
	C75.230591,250.397171 74.603889,256.029236 81.045837,258.421753 
	C82.317215,258.893951 83.073273,260.690613 83.144241,262.227020 
	C83.268494,264.917236 85.099327,265.708130 87.181679,266.635254 
	C98.387878,271.624664 101.126137,267.822479 102.145294,258.447784 
	C102.252335,257.463135 102.547577,256.498932 102.913971,254.717453 
M343.251678,205.662369 
	C341.869507,204.924423 340.645294,202.715714 338.955109,204.024475 
	C333.031158,208.611496 323.520996,208.330505 320.827271,217.373856 
	C320.549347,218.306961 319.297791,219.160080 318.299835,219.624969 
	C316.227386,220.590424 315.487122,222.306229 314.996399,224.309464 
	C314.087128,228.021515 313.111420,231.717438 312.217224,235.433044 
	C311.361237,238.989853 312.797699,240.733902 316.390381,239.866318 
	C323.009277,238.267975 329.562805,236.399231 336.145233,234.649338 
	C337.899689,234.182922 338.694183,232.736511 339.769440,231.446915 
	C346.155579,223.787964 344.714264,214.948257 343.251678,205.662369 
M187.312683,212.880539 
	C182.341919,215.725189 176.648270,218.021530 178.002182,225.552628 
	C178.104172,226.119904 177.655914,226.820969 177.371857,227.416138 
	C176.561935,229.113144 176.824966,230.519547 178.105438,231.951477 
	C180.980972,235.167130 183.759674,238.471008 186.524963,241.783066 
	C188.361160,243.982330 191.250916,244.496384 192.559952,242.540283 
	C196.371948,236.844040 202.672516,232.213531 201.604507,224.074844 
	C201.407242,222.571503 201.458740,220.583511 202.871902,220.014832 
	C208.405319,217.788086 208.172165,212.458908 209.449203,208.086929 
	C210.209885,205.482758 211.992218,202.598694 209.624344,199.182709 
	C202.275330,203.689774 195.101624,208.089340 187.312683,212.880539 
M271.901154,136.626862 
	C270.005188,135.254074 268.615631,133.010849 265.467926,132.728287 
	C266.965515,141.117249 268.335999,149.138977 272.914703,155.948776 
	C274.931946,158.949051 277.620117,161.283722 276.714172,165.389587 
	C276.581665,165.990143 277.418671,166.843048 277.880096,167.530121 
	C281.402740,172.775070 284.945007,178.006851 288.477661,183.245087 
	C289.447205,184.682724 290.524017,185.886658 292.523743,185.510849 
	C294.468445,185.145340 294.483368,183.585419 294.796570,182.110474 
	C295.658295,178.052597 296.816864,174.046753 297.470947,169.958420 
	C298.396118,164.175568 296.822876,158.519089 292.886688,154.597305 
	C286.547882,148.281677 279.300323,142.878143 271.901154,136.626862 
M158.791336,85.337959 
	C160.156433,81.770393 161.464188,78.179413 162.907883,74.643944 
	C163.791016,72.481285 163.367996,70.774971 162.425522,68.584900 
	C159.727570,62.315514 153.729141,63.212616 150.074554,64.553772 
	C144.697723,66.526947 139.613388,69.328484 133.977188,71.090355 
	C131.129776,71.980461 129.100906,75.888962 126.996887,78.656914 
	C124.314957,82.185150 125.741302,86.223640 129.982559,87.395905 
	C135.421967,88.899345 140.902191,90.256439 146.372955,91.644630 
	C151.511719,92.948563 156.022675,90.869247 158.791336,85.337959 
M378.897308,180.931534 
	C382.108612,182.253128 385.415527,181.511078 388.699036,181.410782 
	C394.557800,181.231812 399.730713,176.325089 398.743683,169.925552 
	C398.243805,166.684357 398.664459,163.301941 398.660095,159.983368 
	C398.649139,151.625809 394.411621,148.658417 386.327545,151.237778 
	C380.347656,153.145767 374.729614,154.234009 372.097076,161.983704 
	C370.652924,166.234863 370.333710,169.228241 371.252777,173.290802 
	C372.196136,177.460571 376.105133,177.936737 378.897308,180.931534 
M403.371613,226.669128 
	C399.419739,220.901566 393.169708,217.916122 387.785156,213.892975 
	C387.265045,213.504379 386.197540,213.826492 385.385345,213.854095 
	C376.757843,214.147171 372.448212,228.078461 375.443817,234.489365 
	C377.738708,239.400665 381.405853,243.694214 384.638916,248.134140 
	C386.342926,250.474243 389.861481,251.097458 391.201111,249.377243 
	C396.369720,242.740143 406.219299,238.454712 403.371613,226.669128 
M238.379395,252.073166 
	C242.682358,254.904831 246.553864,259.276276 252.571976,255.913101 
	C253.044632,255.648972 253.866135,256.036133 254.528229,256.079315 
	C257.565094,256.277313 262.957001,251.663849 262.378296,248.754333 
	C261.135773,242.507721 262.071045,235.076736 253.850586,232.145966 
	C251.281235,231.229935 249.196594,228.972076 246.863449,227.367142 
	C245.928009,226.723679 245.090347,225.992523 243.750092,226.034271 
	C238.738556,226.190445 229.030502,236.453064 229.378082,241.512222 
	C229.575287,244.382904 230.289108,247.082153 233.206604,248.627441 
	C234.817657,249.480743 236.270508,250.632767 238.379395,252.073166 
M230.026901,151.451157 
	C229.690201,150.877075 229.383270,150.282852 229.011169,149.732697 
	C227.928619,148.132080 227.267715,145.995575 224.591202,146.495255 
	C221.644775,147.045349 222.487198,149.480515 222.183441,151.276169 
	C220.273285,162.568542 218.422379,173.870941 216.557175,185.170898 
	C215.695648,190.390381 218.462677,193.126755 223.664536,192.230087 
	C224.972168,192.004700 226.328217,191.532806 227.596481,191.693024 
	C235.225601,192.656784 233.262344,182.764786 239.052750,181.658234 
	C239.830002,181.509705 240.356201,180.650284 240.318390,179.706360 
	C240.305252,179.378372 240.238800,179.048325 240.161346,178.727768 
	C239.328659,175.281219 239.777924,171.335846 235.905716,169.132248 
	C234.607971,168.393723 233.631149,166.522507 234.185776,165.224991 
	C236.552155,159.689072 232.450439,156.206070 230.026901,151.451157 
M258.263458,55.439686 
	C260.716431,60.889107 261.011780,68.107613 269.240051,68.829956 
	C269.379089,68.842163 269.553314,68.993553 269.627472,69.126617 
	C272.075470,73.519524 276.189728,72.866211 280.118927,72.485565 
	C284.740662,72.037849 289.336853,71.330849 293.956146,70.851799 
	C295.914520,70.648712 297.517426,70.170883 298.239288,68.108521 
	C298.971771,66.015671 297.490356,64.891815 296.190491,64.019676 
	C289.474640,59.513580 285.944672,50.160252 275.945404,50.645008 
	C272.509949,46.178349 267.682251,46.771221 262.898376,46.943222 
	C256.833679,47.161274 255.701157,48.864075 258.263458,55.439686 
M234.546631,282.636810 
	C237.339188,285.715881 240.131821,288.794861 242.924255,291.874054 
	C244.270416,293.358429 245.430344,294.816193 247.966537,293.956116 
	C250.467926,293.107819 250.621521,291.402924 250.710907,289.305725 
	C250.908936,284.660339 251.215454,280.019226 251.512161,275.378571 
	C251.634384,273.466797 251.501038,271.689789 249.625092,270.590759 
	C246.250671,268.613861 244.853928,265.628357 245.187225,261.799683 
	C245.282166,260.709290 245.058060,259.765045 244.160049,259.163239 
	C238.835526,255.594879 233.854935,251.474442 228.138840,248.526352 
	C225.513092,251.113678 226.866074,253.793839 226.696655,256.326447 
	C226.060455,265.836731 232.003342,273.365387 234.546631,282.636810 
M199.805069,288.415497 
	C198.888229,280.788666 194.386780,276.221558 186.019745,274.429199 
	C177.777756,272.663605 173.136200,276.394135 173.152267,284.767578 
	C173.156723,287.090515 173.131027,289.413666 173.154572,291.736359 
	C173.203842,296.594421 176.054245,300.272308 180.830963,301.106659 
	C184.905792,301.818420 189.051651,302.128967 193.169510,302.586182 
	C194.891998,302.777466 196.162750,302.069061 197.638733,301.044098 
	C202.388885,297.745453 201.285629,293.556732 199.805069,288.415497 
M229.697037,204.204163 
	C224.699921,208.832565 219.632095,213.387604 214.729263,218.113800 
	C211.154480,221.559814 210.981766,226.284103 214.064117,230.033615 
	C215.857803,232.215515 217.673615,234.383743 219.572479,236.473618 
	C222.460464,239.652130 226.016342,239.789413 228.265671,236.301071 
	C231.371780,231.484009 236.873016,227.654953 235.401581,220.651581 
	C235.235672,219.861923 235.860947,218.559723 236.536865,217.994843 
	C241.492569,213.853516 240.398529,208.162567 240.620758,202.800629 
	C240.690964,201.106445 239.858337,200.033783 238.371674,199.268875 
	C236.726791,198.422592 235.561844,199.035721 234.371704,200.154602 
	C233.041733,201.404938 231.611404,202.548523 229.697037,204.204163 
M72.260651,192.026779 
	C72.920685,186.729385 74.380020,181.393570 71.343834,176.299713 
	C70.531624,174.937073 70.732239,172.731171 68.654968,172.448044 
	C66.605209,172.168686 65.930237,174.034470 65.075394,175.419647 
	C63.238556,178.395966 61.444893,181.399063 59.644623,184.397827 
	C57.215923,188.443405 53.860859,192.234314 57.118855,197.498184 
	C57.845867,198.672806 57.210381,200.428528 56.541103,201.831604 
	C56.042477,202.876938 55.419346,203.966049 56.257984,205.114395 
	C60.910751,211.485443 65.578789,217.845337 70.312225,224.305435 
	C71.910103,223.142456 72.399055,222.124222 72.528862,220.934860 
	C73.285545,214.002121 73.944855,207.057709 74.797874,200.137039 
	C75.150925,197.272705 74.395073,194.901520 72.260651,192.026779 
M345.765594,298.966461 
	C341.555542,298.041443 337.379395,296.615631 333.126221,296.328064 
	C328.607147,296.022491 323.963348,297.445923 320.735199,300.609833 
	C316.970795,304.299377 313.978790,308.794586 310.777039,313.034882 
	C308.350708,316.248199 309.498199,318.740814 313.630554,318.994568 
	C317.268982,319.217987 320.935913,318.937897 324.589539,318.968231 
	C326.728577,318.985992 327.750122,317.796295 328.772125,316.072937 
	C331.940491,310.730072 336.037872,309.377655 341.865295,311.466156 
	C343.075714,311.899933 344.302979,313.180756 345.570282,312.258179 
	C349.625580,309.306000 354.289978,307.061768 357.709198,302.791718 
	C354.113281,300.021545 350.211334,300.008698 345.765594,298.966461 
M269.204346,123.473801 
	C266.581299,126.663864 267.115417,129.403137 270.217102,131.985718 
	C277.252380,137.843582 284.172363,143.840591 291.242584,149.655319 
	C293.081482,151.167679 294.562653,153.333389 297.063385,153.938095 
	C298.137665,152.454117 297.734650,151.108688 297.451843,149.864578 
	C295.133270,139.664536 292.803467,129.466522 290.377686,119.291588 
	C288.965149,113.366653 284.535645,111.812912 279.633514,115.455872 
	C276.294098,117.937515 273.029480,120.519768 269.204346,123.473801 
M151.123077,290.106079 
	C154.393814,286.797363 157.435104,283.211761 160.999878,280.257965 
	C164.559586,277.308380 165.157211,274.180511 164.037659,269.873840 
	C163.077560,266.180634 159.912628,265.778687 157.483505,264.384216 
	C149.360428,259.721069 137.022797,264.969330 135.223297,274.167023 
	C134.743378,276.620117 133.872040,279.828369 135.407196,282.359589 
	C138.785751,287.930267 142.761536,292.726410 151.123077,290.106079 
M362.051727,108.838737 
	C359.653229,104.487129 357.376587,100.062248 354.818207,95.806763 
	C352.721497,92.319244 345.150299,91.555412 342.907959,94.551239 
	C337.841064,101.320740 332.910645,108.192314 327.911560,115.012718 
	C326.983002,116.279549 326.326813,117.519806 327.269623,119.101341 
	C328.213257,120.684280 329.662598,120.739868 331.184631,120.496254 
	C338.209961,119.371742 345.194916,117.701775 352.261719,117.224030 
	C357.772552,116.851486 360.714417,114.451279 362.051727,108.838737 
M89.267075,207.322998 
	C86.056519,203.423309 82.845963,199.523621 79.841408,195.874146 
	C77.959320,196.472015 77.586960,197.392242 77.450424,198.410599 
	C76.436012,205.976410 74.959869,213.525223 74.643196,221.121658 
	C74.472801,225.208984 77.011040,229.074997 81.270424,230.583038 
	C86.434067,232.411209 91.783951,233.710068 97.040977,235.279068 
	C99.891022,236.129700 101.648010,234.881027 102.327164,232.274536 
	C102.890327,230.113220 96.715103,219.073853 94.581871,218.510452 
	C91.124252,217.597305 90.109764,215.359207 90.481522,212.164444 
	C90.659706,210.633102 90.771881,209.178894 89.267075,207.322998 
M98.040665,202.542465 
	C99.258980,198.748688 100.467476,194.951706 101.697922,191.161865 
	C103.495171,185.626266 101.741737,181.285339 96.488716,179.007751 
	C90.241104,176.298950 83.909920,173.781921 77.599648,171.219467 
	C76.246712,170.670059 74.780434,169.756088 73.378059,170.893356 
	C71.824409,172.153305 72.958160,173.668228 73.350983,175.023178 
	C73.951752,177.095337 74.074768,180.030151 75.497231,181.015244 
	C81.838448,185.406784 81.827194,193.128006 85.582832,198.788803 
	C86.957069,200.860168 88.548988,202.797363 90.150970,204.703873 
	C91.276810,206.043716 91.963043,208.253418 94.126755,208.041550 
	C96.808098,207.779022 97.107048,205.280823 98.040665,202.542465 
M204.205597,160.688538 
	C202.433594,163.641815 198.024078,165.497482 198.300171,168.910721 
	C198.744247,174.401016 197.915253,180.938583 204.626999,184.120987 
	C205.899643,184.724426 206.739716,186.200470 207.852142,187.192276 
	C209.050781,188.260941 210.057785,190.000153 211.988800,189.434067 
	C214.103134,188.814240 214.260818,186.695190 214.529266,184.966003 
	C216.356934,173.193420 218.070251,161.403137 219.859985,149.624573 
	C220.078827,148.184433 220.995239,146.598480 218.995209,145.791473 
	C217.182755,145.060150 216.258087,146.588089 215.321579,147.665466 
	C211.732178,151.794815 208.216370,155.988144 204.205597,160.688538 
M305.796906,147.314392 
	C308.514984,142.366714 311.231720,137.418304 313.952118,132.471909 
	C314.583984,131.323029 315.534576,130.228210 314.944061,128.791214 
	C312.870850,123.746017 311.703796,118.053253 305.060028,116.553413 
	C303.015717,116.091911 301.210480,114.634010 299.243805,113.747650 
	C297.498505,112.961075 295.800537,111.500832 293.730499,113.151161 
	C291.598145,114.851173 292.205750,117.030403 292.666046,119.111450 
	C294.561981,127.683449 296.419495,136.267197 298.542969,144.783829 
	C299.260590,147.662033 299.172699,150.987900 301.664673,153.336853 
	C303.994263,152.045639 304.251831,149.667892 305.796906,147.314392 
M213.601013,50.314705 
	C217.683487,55.298035 222.948196,57.039528 228.353607,55.194649 
	C232.648041,53.728943 237.069565,55.761509 238.060486,60.317863 
	C238.698349,63.250763 240.138428,64.580391 242.723679,65.388382 
	C245.102585,66.131874 247.360382,67.361069 249.778061,67.857536 
	C252.829117,68.484070 255.819656,72.269135 258.916321,69.326027 
	C262.209015,66.196594 258.364410,63.159729 257.394806,60.329876 
	C253.784897,49.794151 249.940140,47.215359 238.789139,47.419804 
	C231.314026,47.556858 223.845917,48.077366 216.374710,48.426762 
	C215.344025,48.474957 214.395248,48.698616 213.601013,50.314705 
M160.354431,184.044678 
	C154.783203,178.540390 149.222443,173.025436 143.632935,167.539780 
	C142.341232,166.272095 141.165680,164.885635 138.894867,165.905457 
	C136.581131,166.944565 136.180161,168.709686 136.480286,170.810776 
	C137.355515,176.938309 137.259521,183.109497 137.492584,189.268707 
	C137.720993,195.305130 142.290039,198.313232 148.057495,196.325012 
	C151.677826,195.076950 155.290802,193.805496 158.885742,192.486420 
	C163.860107,190.661240 164.305527,188.780823 160.354431,184.044678 
M382.992920,202.475601 
	C385.755737,203.197937 387.807953,206.081497 391.211182,204.933990 
	C396.550781,203.133530 401.996948,201.640900 407.301758,199.748169 
	C411.170135,198.367889 411.486359,196.224533 408.977356,192.977692 
	C406.009338,189.136826 401.413055,188.233322 397.646637,185.959564 
	C392.398010,182.791031 387.651428,183.239059 382.508209,184.033157 
	C377.802490,184.759705 376.601807,186.938934 378.190460,191.341827 
	C379.482849,194.923706 381.061218,198.402420 382.992920,202.475601 
M296.133209,105.733696 
	C296.061127,108.314011 297.089722,110.034927 299.576447,111.144600 
	C303.509216,112.899529 307.306396,114.959236 311.153992,116.903671 
	C312.730988,117.700623 314.274597,118.086014 315.747833,116.710884 
	C317.082642,115.464996 316.655426,113.990372 316.240234,112.545372 
	C313.359863,102.520264 310.476868,92.495865 307.566193,82.479530 
	C307.156403,81.069374 306.847748,79.432175 304.946259,79.277405 
	C303.091888,79.126465 302.380554,80.587776 301.740631,81.931206 
	C299.815796,85.972038 298.191833,90.175697 296.010101,94.069031 
	C293.897034,97.839760 293.006531,101.326424 296.133209,105.733696 
M391.722076,139.980591 
	C386.454926,135.141769 381.221924,130.264908 375.898743,125.488480 
	C374.396484,124.140526 373.219330,121.972336 370.434723,123.126038 
	C367.765747,124.231834 368.142944,126.543655 367.907166,128.597290 
	C367.509277,132.063278 367.374268,135.560486 366.943542,139.021515 
	C365.681854,149.159439 370.913391,153.584457 380.743134,150.601639 
	C383.128571,149.877777 385.489380,149.069992 387.885071,148.383057 
	C391.989288,147.206223 393.615784,144.719513 391.722076,139.980591 
M356.577606,132.031174 
	C348.777924,142.054794 340.978210,152.078415 332.459564,163.025986 
	C339.426575,162.693771 344.478302,160.441452 349.781799,159.438919 
	C352.919189,158.845840 354.785248,157.439011 355.350494,154.141647 
	C355.863159,151.151016 357.828278,148.951660 360.696594,148.065720 
	C363.433136,147.220490 364.316437,145.338806 364.525970,142.883408 
	C364.948944,137.926971 365.356659,132.966095 365.591309,127.998589 
	C365.662079,126.500832 366.350281,124.602348 364.052002,123.475197 
	C360.859406,125.306618 359.398651,128.818100 356.577606,132.031174 
M248.998322,107.531052 
	C251.840485,111.204597 254.678253,114.881538 257.525970,118.550774 
	C260.853882,122.838722 265.032715,123.366615 269.415375,120.067650 
	C272.461609,117.774643 275.503265,115.475418 278.563232,113.200859 
	C280.023041,112.115753 281.682587,111.255325 281.162994,108.899063 
	C280.631317,106.487991 278.802399,105.898323 276.811554,105.449478 
	C266.795380,103.191269 256.779266,100.932747 246.755295,98.709595 
	C245.534897,98.438927 244.168900,97.827995 242.980164,99.587715 
	C244.810654,102.008728 246.686035,104.489090 248.998322,107.531052 
M200.372375,97.196815 
	C198.514633,101.458183 196.646774,105.715187 194.803070,109.982628 
	C193.752182,112.415016 196.243301,121.890404 198.514893,123.116745 
	C203.187332,125.639229 207.995911,127.909943 212.753448,130.274216 
	C214.302307,131.043930 215.590256,130.575638 216.850723,129.506149 
	C218.257538,128.312500 218.144150,126.995811 217.561646,125.474152 
	C214.179123,116.638306 210.777847,107.809067 207.486526,98.939140 
	C206.114655,95.242012 203.960724,94.454048 200.372375,97.196815 
M162.567596,182.747604 
	C163.695389,183.611710 164.408188,185.238007 166.499222,184.725586 
	C166.764481,184.317917 167.403305,183.789215 167.421280,183.240189 
	C167.671432,175.597641 168.164536,167.939972 167.877563,160.313126 
	C167.743607,156.752396 165.180283,154.318695 161.061844,154.810455 
	C157.105652,155.282837 153.172333,156.003067 149.205414,156.309509 
	C146.585068,156.511948 145.058960,157.335022 144.045441,159.996368 
	C142.984879,162.781296 144.045990,164.355103 145.808990,166.087799 
	C151.266022,171.450974 156.672791,176.865280 162.567596,182.747604 
M181.688599,59.274658 
	C179.418396,60.648640 176.212082,60.762985 175.996597,64.643333 
	C175.775436,68.625938 179.162704,68.935028 181.256531,70.428551 
	C184.766388,72.932121 188.564804,75.027321 192.188110,77.377129 
	C194.323029,78.761673 196.058411,79.852104 198.921616,78.241928 
	C201.852936,76.593445 202.986572,74.753700 202.714340,71.546463 
	C202.504364,69.072418 202.697235,66.565247 202.688293,64.072884 
	C202.657120,55.384529 197.484818,52.023430 189.586990,55.579071 
	C187.163986,56.669907 184.780716,57.848934 181.688599,59.274658 
M333.951416,265.694702 
	C335.471497,265.432220 337.365814,266.225861 338.382660,263.986145 
	C337.977417,262.217255 336.182159,261.754364 334.881378,260.925964 
	C328.729218,257.007843 322.518555,253.181046 316.306152,249.358398 
	C312.403595,246.957047 308.169281,247.852692 305.649689,251.722641 
	C303.933289,254.358887 302.389618,257.114197 300.880157,259.877167 
	C297.948822,265.242737 298.777985,266.805237 304.749451,266.675964 
	C314.194458,266.471558 323.634674,266.047211 333.951416,265.694702 
M106.122986,129.647751 
	C104.453697,132.334824 102.655411,134.951797 101.147942,137.726761 
	C99.283333,141.159149 100.289772,144.109283 103.838463,145.431168 
	C109.913071,147.693985 116.162079,149.489227 122.340843,151.471466 
	C124.227470,152.076736 125.866310,151.912064 127.308701,150.281540 
	C128.867081,148.519913 128.191177,146.938080 127.310608,145.254486 
	C124.610771,140.092529 121.910622,134.930649 119.240921,129.753082 
	C116.001366,123.470375 110.345329,123.144936 106.122986,129.647751 
M120.434364,277.014648 
	C116.351273,276.365112 112.272797,275.684570 108.183632,275.075836 
	C104.903397,274.587524 103.617195,276.490753 104.615646,279.181702 
	C106.094887,283.168457 106.642204,288.133514 112.550026,288.748840 
	C114.549217,288.957092 116.107399,290.665497 116.907547,292.538208 
	C117.941765,294.958740 119.851639,295.451752 122.109222,295.563354 
	C126.406166,295.775726 130.730759,295.434875 134.994949,296.345795 
	C136.595642,296.687775 137.897629,296.089478 138.696579,294.529846 
	C139.433868,293.090546 139.745438,291.706573 138.474411,290.426147 
	C135.356354,287.284943 134.003876,281.997314 128.151520,282.151703 
	C126.770462,282.188110 125.826317,280.878876 125.183525,279.722778 
	C124.289665,278.115112 123.036163,277.264008 120.434364,277.014648 
M325.710724,208.099869 
	C328.950073,206.419373 332.196472,204.752350 335.426178,203.053528 
	C337.461243,201.983063 342.030151,193.177002 341.040649,191.287354 
	C337.563171,184.646545 333.739258,178.187195 330.046844,171.658966 
	C329.511902,171.762436 328.976959,171.865921 328.441986,171.969406 
	C324.997345,184.529678 321.417145,197.058990 319.372986,210.119278 
	C322.370972,210.421356 323.524414,208.921631 325.710724,208.099869 
M332.785095,344.459015 
	C336.662231,341.658539 336.718048,337.625153 336.661407,333.371063 
	C336.619568,330.229004 334.260742,329.807373 332.354462,328.602448 
	C330.374786,327.351166 329.339050,328.643951 328.086823,329.762146 
	C322.883179,334.408752 317.688507,339.066925 312.405304,343.621948 
	C310.681366,345.108337 310.032196,346.829437 310.591736,348.925507 
	C311.168488,351.085907 320.598541,356.758148 322.899780,356.282562 
	C326.371338,355.565125 330.252075,355.623749 332.021820,351.456482 
	C332.924805,349.330109 331.178650,347.150940 332.785095,344.459015 
M237.787643,134.354233 
	C231.772980,136.093155 228.525116,143.554565 231.492020,148.848663 
	C233.036957,151.605469 234.547226,154.385101 236.193741,157.080765 
	C238.393860,160.682846 240.587906,160.684967 242.813705,157.060196 
	C247.338837,149.690903 251.820679,142.294327 256.236633,134.859283 
	C257.092194,133.418777 258.719086,131.916946 256.743622,129.672699 
	C250.779602,131.163727 244.680603,132.688492 237.787643,134.354233 
M152.740005,106.196800 
	C151.517349,109.100594 150.305252,112.008881 149.069733,114.907188 
	C146.848068,120.118729 148.123276,121.994041 153.938477,121.591049 
	C161.860855,121.042030 169.767685,120.270615 177.683487,119.622635 
	C179.215088,119.497261 180.786285,119.451828 181.238754,117.596863 
	C181.694397,115.728813 180.167999,114.981018 179.001526,114.106133 
	C173.826355,110.224648 168.673248,106.311707 163.432419,102.520393 
	C158.548569,98.987328 155.854767,99.815590 152.740005,106.196800 
M232.979645,302.528656 
	C234.638657,302.376831 236.296860,302.111969 237.956894,302.099792 
	C240.412567,302.081726 241.900055,301.091400 242.890610,298.736633 
	C243.926712,296.273621 242.518845,295.005981 241.149765,293.541534 
	C238.532684,290.742188 235.960693,287.899719 233.305069,285.137573 
	C229.517563,281.198059 226.051529,281.341492 222.409821,285.561890 
	C219.253677,289.219574 216.165573,292.936066 213.000595,296.586029 
	C211.672852,298.117249 210.201324,299.472260 211.374344,301.823425 
	C212.578384,304.236786 214.739304,303.663422 216.630112,303.576080 
	C221.781570,303.338196 226.924683,302.919250 232.979645,302.528656 
M329.192902,254.237961 
	C331.872467,255.905869 334.512817,257.641235 337.240356,259.226593 
	C341.873779,261.919708 344.685516,260.425507 344.574127,255.177704 
	C344.479065,250.700851 344.264740,246.189178 343.581909,241.773499 
	C342.989532,237.942520 340.513519,236.069016 336.416290,237.172272 
	C330.006012,238.898331 323.591980,240.610474 317.173859,242.306976 
	C316.015381,242.613190 314.875549,242.869247 314.725128,245.222275 
	C319.100433,247.947937 323.838684,250.899673 329.192902,254.237961 
M313.703033,138.113556 
	C311.253662,142.626419 308.792877,147.133148 306.358032,151.653839 
	C303.906952,156.204773 305.067139,158.866333 310.205719,160.325455 
	C313.226410,161.183197 316.275787,161.948074 319.332153,162.670380 
	C324.516937,163.895660 326.431976,162.120987 325.525909,156.756744 
	C324.480316,150.566086 323.405701,144.371658 322.027954,138.249893 
	C321.451996,135.690613 322.619537,131.444946 319.220825,131.034332 
	C315.714417,130.610703 315.808228,135.252472 313.703033,138.113556 
M272.005646,181.507599 
	C272.014191,186.487228 271.860809,191.474457 272.093567,196.443588 
	C272.227448,199.301331 270.507721,203.271545 273.458740,204.756714 
	C276.373291,206.223495 278.385773,202.274231 280.860809,200.863983 
	C282.920898,199.690170 285.610931,198.614868 286.106842,195.915359 
	C287.201202,189.958359 287.876740,184.196365 282.826416,179.126694 
	C279.196625,175.483017 277.392670,170.215118 272.996094,166.105911 
	C271.281311,171.371017 272.244110,175.990753 272.005646,181.507599 
M309.229279,236.567947 
	C310.678436,230.833557 313.116699,225.246002 312.743011,218.266281 
	C306.908997,221.850739 302.111877,224.790833 297.322174,227.742935 
	C292.367828,230.796539 287.414337,233.851669 282.475037,236.929520 
	C281.330658,237.642624 280.173035,238.450714 280.571167,240.074417 
	C280.923401,241.511047 282.162140,241.712204 283.342407,241.623611 
	C291.957611,240.976791 301.330109,244.572144 309.229279,236.567947 
M262.577240,158.973160 
	C264.582306,158.393219 266.186981,157.570786 266.542084,155.116425 
	C267.705231,147.077484 263.981689,140.193283 262.422089,132.800980 
	C261.845154,132.697800 261.268250,132.594635 260.691345,132.491470 
	C254.908539,142.114029 249.125732,151.736603 242.758698,162.331329 
	C250.296570,162.634476 256.030609,160.311417 262.577240,158.973160 
M273.010620,317.566498 
	C275.056885,312.839630 277.094269,308.108917 279.154266,303.388031 
	C279.871735,301.743805 279.980164,300.225983 278.697449,298.754150 
	C277.387726,297.251404 275.893463,297.316895 274.172180,297.848755 
	C268.102356,299.724243 260.620239,299.554688 259.688751,308.541718 
	C259.540833,309.968933 257.323334,310.943939 258.496918,312.943176 
	C260.431030,316.238037 262.069702,319.721527 264.185608,322.889984 
	C266.072357,325.715332 269.228790,325.345032 270.846863,322.342285 
	C271.554352,321.029388 272.080383,319.618713 273.010620,317.566498 
M103.332504,266.852142 
	C104.456276,268.847137 105.029762,271.740021 107.329681,272.286652 
	C112.316422,273.471893 117.451408,274.098114 122.556015,274.693909 
	C124.906921,274.968292 126.216843,273.638000 124.877510,271.311920 
	C120.568123,263.827667 116.120834,256.422577 111.691902,249.007721 
	C110.966721,247.793625 109.897369,247.061142 108.353325,247.425064 
	C107.007607,247.742264 106.571022,248.709549 106.339104,249.950134 
	C105.334526,255.323807 104.281815,260.688477 103.332504,266.852142 
M304.617188,291.999451 
	C309.443909,291.999451 314.270660,291.999451 319.436188,291.999451 
	C318.931885,290.391693 318.932709,289.966156 318.723724,289.791107 
	C314.409424,286.177673 310.095367,282.563232 305.733032,279.008087 
	C295.479279,270.651703 294.676392,270.877045 290.152069,283.185577 
	C288.285583,288.263428 291.775360,292.781067 297.219818,292.368530 
	C299.365204,292.205994 301.516785,292.125610 304.617188,291.999451 
M214.207565,258.685669 
	C211.034027,262.528961 207.838516,266.354401 204.695251,270.222290 
	C202.834671,272.511780 203.074112,274.356445 206.271500,274.697174 
	C210.727158,275.171997 215.215057,275.428406 219.695526,275.556976 
	C222.716797,275.643616 225.545410,273.560272 225.529007,271.123047 
	C225.480789,263.957123 225.253052,256.686493 223.026047,248.718460 
	C219.244293,251.804138 217.184097,255.194839 214.207565,258.685669 
M302.647217,331.175934 
	C300.654144,327.286621 297.626770,324.415894 293.130829,325.418182 
	C287.980072,326.566376 283.046204,328.687134 278.017761,330.384369 
	C276.877869,330.769104 275.779114,331.291779 275.586670,332.605896 
	C275.333862,334.331909 276.741699,334.834229 277.953644,335.349274 
	C284.671295,338.204132 291.365479,341.119873 298.144287,343.822784 
	C301.457092,345.143738 303.652832,343.507965 303.550537,339.894714 
	C303.475769,337.253601 302.994904,334.623962 302.647217,331.175934 
M249.064697,219.487381 
	C244.910721,221.309631 245.807861,223.493454 248.728485,225.623596 
	C252.615051,228.458282 256.562592,231.212494 260.541901,233.915985 
	C263.968872,236.244217 269.164795,234.130859 269.501709,230.089279 
	C269.831421,226.134018 269.806000,222.112350 269.507690,218.152115 
	C269.221344,214.350403 266.535217,212.943253 262.794556,214.307419 
	C258.432190,215.898331 254.103790,217.582458 249.064697,219.487381 
M393.100189,214.335419 
	C396.271149,216.761230 399.404755,219.237900 402.623383,221.598709 
	C405.935211,224.027893 410.347839,222.755234 411.232697,218.807083 
	C412.172455,214.613831 412.665955,210.275772 412.872192,205.977814 
	C413.023834,202.817017 411.610840,200.887405 407.848541,202.206665 
	C403.142395,203.856888 398.334473,205.214584 393.604797,206.800873 
	C391.943604,207.358017 389.723297,207.488312 389.412903,209.777405 
	C389.110840,212.004822 391.175415,212.756119 393.100189,214.335419 
M299.114288,257.712616 
	C300.432983,255.414444 301.798615,253.141678 303.060242,250.812576 
	C305.410126,246.474609 304.444824,244.533676 299.687500,244.370163 
	C294.556915,244.193817 289.417603,244.281830 284.282379,244.226944 
	C282.367554,244.206482 280.752991,244.438995 279.840302,246.555130 
	C278.979553,248.550812 279.445465,250.077423 280.785675,251.534683 
	C283.364258,254.338470 285.896301,257.188141 288.552734,259.916504 
	C293.011963,264.496429 295.469116,264.091187 299.114288,257.712616 
M324.983612,329.461151 
	C326.426819,327.624634 329.499298,326.543335 328.264587,323.415222 
	C327.001129,320.214233 324.017639,321.716156 321.722473,321.426331 
	C320.744812,321.302917 319.737549,321.411072 318.743774,321.418884 
	C308.493225,321.499634 304.296783,326.363678 305.664612,336.575500 
	C305.796509,337.560150 305.920471,338.545898 306.044464,339.531555 
	C306.207214,340.825562 306.028625,342.352051 307.497070,342.990143 
	C309.287750,343.768280 310.168060,342.150238 311.246613,341.235901 
	C315.666809,337.488800 320.053497,333.702209 324.983612,329.461151 
M260.754944,204.712357 
	C258.187195,202.901230 255.546524,201.183289 253.074936,199.249268 
	C251.125061,197.723495 249.567902,197.804626 247.275482,198.907730 
	C240.587204,202.126114 242.704361,208.111038 242.493469,213.225174 
	C242.344635,216.833878 244.640167,218.221344 248.158508,216.987671 
	C252.371826,215.510315 256.594635,214.052322 260.755707,212.437500 
	C262.389221,211.803574 264.545685,211.418533 264.901917,209.299072 
	C265.336639,206.712143 262.721710,206.347778 260.754944,204.712357 
M136.598129,216.730484 
	C136.585800,215.898239 136.693512,215.042648 136.537064,214.238434 
	C136.170731,212.355316 136.571060,209.842178 134.159042,209.199295 
	C131.901474,208.597549 131.217484,210.935989 130.143997,212.298401 
	C126.332802,217.135254 122.592163,222.027634 118.804558,226.883194 
	C116.915367,229.305069 114.610016,231.461975 113.638329,234.588135 
	C114.365959,234.970993 114.865585,235.467178 115.197998,235.373032 
	C118.870773,234.332779 122.539154,233.266800 126.166946,232.080048 
	C133.787231,229.587250 136.654037,225.552673 136.598129,216.730484 
M203.179108,293.335510 
	C203.554474,295.108948 203.645309,297.048737 205.967270,297.563538 
	C208.066605,298.028992 209.370682,296.993042 210.637924,295.475525 
	C214.045120,291.395477 217.593567,287.433685 221.025879,283.374176 
	C223.001831,281.037170 223.775879,278.842010 219.587799,278.246490 
	C216.795013,277.849396 213.975998,277.534729 211.159332,277.426086 
	C201.789810,277.064667 200.648926,278.418549 202.206085,287.661743 
	C202.480698,289.291809 202.685989,290.933594 203.179108,293.335510 
M177.859283,190.002365 
	C187.911865,190.974762 197.932129,192.496368 208.593964,192.588074 
	C199.188095,177.691696 183.920380,176.118774 174.208771,188.506943 
	C174.710617,189.934418 176.046204,189.635071 177.859283,190.002365 
M156.288849,216.181488 
	C152.696732,213.782150 149.135529,211.334808 145.503922,208.996796 
	C141.789719,206.605621 138.187592,208.270935 138.479385,212.640259 
	C139.159958,222.830948 138.176941,229.215668 152.547943,225.205109 
	C153.346130,224.982346 154.162811,224.799026 154.983154,224.687943 
	C156.952393,224.421265 158.265182,223.641174 158.891281,221.497604 
	C159.585281,219.121506 158.906219,217.656555 156.288849,216.181488 
M159.160095,285.659302 
	C157.535126,287.312286 155.843170,288.905334 154.299561,290.631104 
	C151.343155,293.936310 152.373260,297.266418 156.730835,298.252380 
	C159.300415,298.833740 161.986862,299.501892 164.559769,299.310638 
	C167.682358,299.078522 170.253418,297.116974 170.536209,293.799622 
	C170.900589,289.525208 170.648972,285.198120 170.659424,280.893738 
	C170.662460,279.643646 170.248322,278.652313 169.032074,278.079376 
	C167.546814,277.379730 166.471909,278.079071 165.503830,279.069397 
	C163.537064,281.081329 161.603897,283.126129 159.160095,285.659302 
M107.981148,91.536964 
	C106.055580,92.514046 104.130478,93.492043 102.204338,94.467987 
	C99.881310,95.645020 96.879875,96.335243 97.607903,99.961555 
	C98.033195,102.080002 106.346527,108.422493 107.762299,107.564613 
	C110.143387,106.121796 114.139694,107.817589 115.107727,103.633377 
	C116.041946,99.595322 117.424904,95.657234 118.274582,91.604752 
	C118.892235,88.658875 117.721848,86.947983 114.436394,88.318993 
	C112.450165,89.147835 110.575859,90.244858 107.981148,91.536964 
M210.772491,212.917572 
	C210.633591,214.618408 209.089066,216.160019 210.396057,218.624725 
	C218.071945,211.450928 225.571869,204.481659 233.014694,197.451935 
	C234.513412,196.036407 234.530289,193.606995 232.487869,193.709122 
	C228.303909,193.918365 223.676712,193.293182 220.031189,196.029633 
	C214.705627,200.027237 211.369492,205.320389 210.772491,212.917572 
M339.552063,371.607727 
	C338.257019,365.262787 339.200623,358.387695 335.688446,352.222137 
	C331.125275,355.884521 329.435913,359.251129 330.954742,364.199982 
	C332.082184,367.873627 334.813416,371.004700 338.319885,373.085297 
	C338.464630,373.171204 339.027802,372.552002 339.552063,371.607727 
M312.927307,360.672119 
	C315.347290,364.798889 316.342010,369.764618 319.824310,373.667572 
	C325.299500,364.711578 321.867157,358.128052 309.657288,353.227081 
	C309.945282,355.913330 311.536285,357.861877 312.927307,360.672119 
M324.714569,375.980682 
	C326.688538,379.969910 330.300018,378.674896 333.422089,378.490753 
	C334.786377,378.410309 335.887756,376.943207 335.338104,375.551453 
	C333.923950,371.970398 331.457123,369.049347 328.401825,366.754456 
	C327.166870,365.826904 325.603119,366.569489 325.138947,367.927460 
	C324.326477,370.304260 322.540344,372.673218 324.714569,375.980682 
z"/>
</svg>