<svg xmlns="http://www.w3.org/2000/svg" viewBox="0 0 64 64" width="64" height="64">
  <defs>
    <linearGradient id="brainGradient" x1="0%" y1="0%" x2="100%" y2="100%">
      <stop offset="0%" style="stop-color:#00d4ff;stop-opacity:1" />
      <stop offset="50%" style="stop-color:#7c3aed;stop-opacity:1" />
      <stop offset="100%" style="stop-color:#ff0080;stop-opacity:1" />
    </linearGradient>
    <filter id="glow">
      <feGaussianBlur stdDeviation="2" result="coloredBlur"/>
      <feMerge> 
        <feMergeNode in="coloredBlur"/>
        <feMergeNode in="SourceGraphic"/>
      </feMerge>
    </filter>
  </defs>
  
  <!-- Background circle -->
  <circle cx="32" cy="32" r="28" fill="url(#brainGradient)" opacity="0.1"/>
  
  <!-- Neural network nodes -->
  <circle cx="20" cy="24" r="3" fill="url(#brainGradient)" filter="url(#glow)"/>
  <circle cx="32" cy="18" r="3" fill="url(#brainGradient)" filter="url(#glow)"/>
  <circle cx="44" cy="24" r="3" fill="url(#brainGradient)" filter="url(#glow)"/>
  <circle cx="18" cy="40" r="3" fill="url(#brainGradient)" filter="url(#glow)"/>
  <circle cx="32" cy="46" r="3" fill="url(#brainGradient)" filter="url(#glow)"/>
  <circle cx="46" cy="40" r="3" fill="url(#brainGradient)" filter="url(#glow)"/>
  
  <!-- Neural connections -->
  <line x1="20" y1="24" x2="32" y2="18" stroke="url(#brainGradient)" stroke-width="1.5" opacity="0.7"/>
  <line x1="32" y1="18" x2="44" y2="24" stroke="url(#brainGradient)" stroke-width="1.5" opacity="0.7"/>
  <line x1="20" y1="24" x2="18" y2="40" stroke="url(#brainGradient)" stroke-width="1.5" opacity="0.7"/>
  <line x1="44" y1="24" x2="46" y2="40" stroke="url(#brainGradient)" stroke-width="1.5" opacity="0.7"/>
  <line x1="18" y1="40" x2="32" y2="46" stroke="url(#brainGradient)" stroke-width="1.5" opacity="0.7"/>
  <line x1="46" y1="40" x2="32" y2="46" stroke="url(#brainGradient)" stroke-width="1.5" opacity="0.7"/>
  <line x1="32" y1="18" x2="32" y2="46" stroke="url(#brainGradient)" stroke-width="1" opacity="0.5"/>
  
  <!-- Central brain core -->
  <circle cx="32" cy="32" r="6" fill="none" stroke="url(#brainGradient)" stroke-width="2" opacity="0.8"/>
  <circle cx="32" cy="32" r="2" fill="url(#brainGradient)" filter="url(#glow)"/>
</svg>